<mxfile host="app.diagrams.net" modified="2021-04-10T13:00:45.152Z" agent="5.0 (Macintosh; Intel Mac OS X 11_2_1) AppleWebKit/537.36 (KHTML, like Gecko) Chrome/88.0.4324.182 Safari/537.36 Edg/88.0.705.74" etag="4pLK99r-VtJdLiobA8za" version="14.5.8" type="github">
  <diagram id="syFxhz2EDsbqeftqXMqm" name="第 1 页">
    <mxGraphModel dx="1694" dy="1091" grid="0" gridSize="10" guides="1" tooltips="1" connect="1" arrows="1" fold="1" page="1" pageScale="1" pageWidth="9900" pageHeight="9900" math="0" shadow="0">
      <root>
        <mxCell id="0" />
        <mxCell id="1" parent="0" />
        <mxCell id="_ZkU4N29EXZwWz9aZpPe-1" value="请求" style="edgeStyle=orthogonalEdgeStyle;rounded=0;orthogonalLoop=1;jettySize=auto;html=1;fontSize=16;" edge="1" parent="1" source="_ZkU4N29EXZwWz9aZpPe-2">
          <mxGeometry relative="1" as="geometry">
            <mxPoint x="460" y="579.9999999999998" as="targetPoint" />
          </mxGeometry>
        </mxCell>
        <mxCell id="_ZkU4N29EXZwWz9aZpPe-2" value="" style="shape=umlActor;verticalLabelPosition=bottom;verticalAlign=top;html=1;outlineConnect=0;" vertex="1" parent="1">
          <mxGeometry x="300" y="530" width="50" height="100" as="geometry" />
        </mxCell>
        <mxCell id="_ZkU4N29EXZwWz9aZpPe-3" value="Endpoint" style="rounded=0;whiteSpace=wrap;html=1;fontSize=16;" vertex="1" parent="1">
          <mxGeometry x="440" y="480" width="80" height="40" as="geometry" />
        </mxCell>
        <mxCell id="_ZkU4N29EXZwWz9aZpPe-4" value="" style="endArrow=none;dashed=1;html=1;fontSize=16;entryX=0.5;entryY=1;entryDx=0;entryDy=0;" edge="1" parent="1" target="_ZkU4N29EXZwWz9aZpPe-3">
          <mxGeometry width="50" height="50" relative="1" as="geometry">
            <mxPoint x="480" y="1200" as="sourcePoint" />
            <mxPoint x="480" y="530" as="targetPoint" />
          </mxGeometry>
        </mxCell>
        <mxCell id="_ZkU4N29EXZwWz9aZpPe-5" value="Processor" style="rounded=0;whiteSpace=wrap;html=1;fontSize=16;" vertex="1" parent="1">
          <mxGeometry x="560" y="480" width="120" height="40" as="geometry" />
        </mxCell>
        <mxCell id="_ZkU4N29EXZwWz9aZpPe-6" value="" style="endArrow=none;dashed=1;html=1;fontSize=16;entryX=0.5;entryY=1;entryDx=0;entryDy=0;" edge="1" parent="1" target="_ZkU4N29EXZwWz9aZpPe-5">
          <mxGeometry width="50" height="50" relative="1" as="geometry">
            <mxPoint x="620" y="1190" as="sourcePoint" />
            <mxPoint x="600" y="530" as="targetPoint" />
          </mxGeometry>
        </mxCell>
        <mxCell id="_ZkU4N29EXZwWz9aZpPe-7" value="FilterChain" style="rounded=0;whiteSpace=wrap;html=1;fontSize=16;" vertex="1" parent="1">
          <mxGeometry x="1680" y="480" width="120" height="40" as="geometry" />
        </mxCell>
        <mxCell id="_ZkU4N29EXZwWz9aZpPe-8" value="" style="endArrow=none;dashed=1;html=1;fontSize=16;entryX=0.5;entryY=1;entryDx=0;entryDy=0;" edge="1" parent="1" source="_ZkU4N29EXZwWz9aZpPe-50" target="_ZkU4N29EXZwWz9aZpPe-7">
          <mxGeometry width="50" height="50" relative="1" as="geometry">
            <mxPoint x="1740" y="1190" as="sourcePoint" />
            <mxPoint x="1760" y="530" as="targetPoint" />
          </mxGeometry>
        </mxCell>
        <mxCell id="_ZkU4N29EXZwWz9aZpPe-9" value="CoyoteAdapter" style="rounded=0;whiteSpace=wrap;html=1;fontSize=16;" vertex="1" parent="1">
          <mxGeometry x="720" y="480" width="120" height="40" as="geometry" />
        </mxCell>
        <mxCell id="_ZkU4N29EXZwWz9aZpPe-10" value="" style="endArrow=none;dashed=1;html=1;fontSize=16;entryX=0.5;entryY=1;entryDx=0;entryDy=0;" edge="1" parent="1" source="_ZkU4N29EXZwWz9aZpPe-32" target="_ZkU4N29EXZwWz9aZpPe-9">
          <mxGeometry width="50" height="50" relative="1" as="geometry">
            <mxPoint x="780" y="1200" as="sourcePoint" />
            <mxPoint x="800" y="530" as="targetPoint" />
          </mxGeometry>
        </mxCell>
        <mxCell id="_ZkU4N29EXZwWz9aZpPe-11" value="Mapper" style="rounded=0;whiteSpace=wrap;html=1;fontSize=16;" vertex="1" parent="1">
          <mxGeometry x="880" y="480" width="120" height="40" as="geometry" />
        </mxCell>
        <mxCell id="_ZkU4N29EXZwWz9aZpPe-12" value="" style="endArrow=none;dashed=1;html=1;fontSize=16;entryX=0.5;entryY=1;entryDx=0;entryDy=0;" edge="1" parent="1" source="_ZkU4N29EXZwWz9aZpPe-35" target="_ZkU4N29EXZwWz9aZpPe-11">
          <mxGeometry width="50" height="50" relative="1" as="geometry">
            <mxPoint x="940" y="1210" as="sourcePoint" />
            <mxPoint x="960" y="530" as="targetPoint" />
          </mxGeometry>
        </mxCell>
        <mxCell id="_ZkU4N29EXZwWz9aZpPe-13" value="Engine" style="rounded=0;whiteSpace=wrap;html=1;fontSize=16;" vertex="1" parent="1">
          <mxGeometry x="1040" y="480" width="120" height="40" as="geometry" />
        </mxCell>
        <mxCell id="_ZkU4N29EXZwWz9aZpPe-14" value="" style="endArrow=none;dashed=1;html=1;fontSize=16;entryX=0.5;entryY=1;entryDx=0;entryDy=0;" edge="1" parent="1" source="_ZkU4N29EXZwWz9aZpPe-38" target="_ZkU4N29EXZwWz9aZpPe-13">
          <mxGeometry width="50" height="50" relative="1" as="geometry">
            <mxPoint x="1100" y="1200" as="sourcePoint" />
            <mxPoint x="1120" y="530" as="targetPoint" />
          </mxGeometry>
        </mxCell>
        <mxCell id="_ZkU4N29EXZwWz9aZpPe-15" value="Host" style="rounded=0;whiteSpace=wrap;html=1;fontSize=16;" vertex="1" parent="1">
          <mxGeometry x="1200" y="480" width="120" height="40" as="geometry" />
        </mxCell>
        <mxCell id="_ZkU4N29EXZwWz9aZpPe-16" value="" style="endArrow=none;dashed=1;html=1;fontSize=16;entryX=0.5;entryY=1;entryDx=0;entryDy=0;" edge="1" parent="1" source="_ZkU4N29EXZwWz9aZpPe-40" target="_ZkU4N29EXZwWz9aZpPe-15">
          <mxGeometry width="50" height="50" relative="1" as="geometry">
            <mxPoint x="1260" y="1200" as="sourcePoint" />
            <mxPoint x="1280" y="530" as="targetPoint" />
          </mxGeometry>
        </mxCell>
        <mxCell id="_ZkU4N29EXZwWz9aZpPe-17" value="Wrapper" style="rounded=0;whiteSpace=wrap;html=1;fontSize=16;" vertex="1" parent="1">
          <mxGeometry x="1520" y="480" width="120" height="40" as="geometry" />
        </mxCell>
        <mxCell id="_ZkU4N29EXZwWz9aZpPe-18" value="" style="endArrow=none;dashed=1;html=1;fontSize=16;entryX=0.5;entryY=1;entryDx=0;entryDy=0;" edge="1" parent="1" source="_ZkU4N29EXZwWz9aZpPe-46" target="_ZkU4N29EXZwWz9aZpPe-17">
          <mxGeometry width="50" height="50" relative="1" as="geometry">
            <mxPoint x="1580" y="1200" as="sourcePoint" />
            <mxPoint x="1600" y="530" as="targetPoint" />
          </mxGeometry>
        </mxCell>
        <mxCell id="_ZkU4N29EXZwWz9aZpPe-19" value="Context" style="rounded=0;whiteSpace=wrap;html=1;fontSize=16;" vertex="1" parent="1">
          <mxGeometry x="1360" y="480" width="120" height="40" as="geometry" />
        </mxCell>
        <mxCell id="_ZkU4N29EXZwWz9aZpPe-20" value="" style="endArrow=none;dashed=1;html=1;fontSize=16;entryX=0.5;entryY=1;entryDx=0;entryDy=0;" edge="1" parent="1" target="_ZkU4N29EXZwWz9aZpPe-19" source="_ZkU4N29EXZwWz9aZpPe-45">
          <mxGeometry width="50" height="50" relative="1" as="geometry">
            <mxPoint x="1420" y="1200" as="sourcePoint" />
            <mxPoint x="1440" y="530" as="targetPoint" />
          </mxGeometry>
        </mxCell>
        <mxCell id="_ZkU4N29EXZwWz9aZpPe-21" value="" style="endArrow=none;dashed=1;html=1;fontSize=16;entryX=0.5;entryY=1;entryDx=0;entryDy=0;" edge="1" parent="1" source="_ZkU4N29EXZwWz9aZpPe-54">
          <mxGeometry width="50" height="50" relative="1" as="geometry">
            <mxPoint x="1900" y="1190" as="sourcePoint" />
            <mxPoint x="1900" y="519.9999999999998" as="targetPoint" />
          </mxGeometry>
        </mxCell>
        <mxCell id="_ZkU4N29EXZwWz9aZpPe-22" value="User" style="text;html=1;strokeColor=none;fillColor=none;align=center;verticalAlign=middle;whiteSpace=wrap;rounded=0;fontSize=16;" vertex="1" parent="1">
          <mxGeometry x="310" y="640" width="40" height="20" as="geometry" />
        </mxCell>
        <mxCell id="_ZkU4N29EXZwWz9aZpPe-23" value="" style="rounded=0;whiteSpace=wrap;html=1;fontSize=16;" vertex="1" parent="1">
          <mxGeometry x="465" y="550" width="35" height="563" as="geometry" />
        </mxCell>
        <mxCell id="_ZkU4N29EXZwWz9aZpPe-26" value="接收请求" style="endArrow=classic;html=1;fontSize=16;entryX=1.076;entryY=0.192;entryDx=0;entryDy=0;entryPerimeter=0;" edge="1" parent="1">
          <mxGeometry width="50" height="50" relative="1" as="geometry">
            <mxPoint x="497.72000000000025" y="609.9999999999998" as="sourcePoint" />
            <mxPoint x="495" y="651.04" as="targetPoint" />
            <Array as="points">
              <mxPoint x="527.72" y="610" />
              <mxPoint x="527.72" y="650" />
            </Array>
          </mxGeometry>
        </mxCell>
        <mxCell id="_ZkU4N29EXZwWz9aZpPe-27" value="处理" style="edgeStyle=orthogonalEdgeStyle;rounded=0;orthogonalLoop=1;jettySize=auto;html=1;fontSize=16;exitX=1.049;exitY=0.277;exitDx=0;exitDy=0;exitPerimeter=0;" edge="1" parent="1" source="_ZkU4N29EXZwWz9aZpPe-23">
          <mxGeometry relative="1" as="geometry">
            <mxPoint x="600" y="704.9999999999998" as="targetPoint" />
          </mxGeometry>
        </mxCell>
        <mxCell id="_ZkU4N29EXZwWz9aZpPe-28" value="" style="rounded=0;whiteSpace=wrap;html=1;fontSize=16;" vertex="1" parent="1">
          <mxGeometry x="470" y="630" width="30" height="50" as="geometry" />
        </mxCell>
        <mxCell id="_ZkU4N29EXZwWz9aZpPe-29" value="" style="rounded=0;whiteSpace=wrap;html=1;fontSize=16;" vertex="1" parent="1">
          <mxGeometry x="605" y="670" width="30" height="420" as="geometry" />
        </mxCell>
        <mxCell id="_ZkU4N29EXZwWz9aZpPe-32" value="" style="rounded=0;whiteSpace=wrap;html=1;fontSize=16;" vertex="1" parent="1">
          <mxGeometry x="765" y="720" width="25" height="380" as="geometry" />
        </mxCell>
        <mxCell id="_ZkU4N29EXZwWz9aZpPe-33" value="" style="endArrow=none;dashed=1;html=1;fontSize=16;entryX=0.5;entryY=1;entryDx=0;entryDy=0;" edge="1" parent="1" target="_ZkU4N29EXZwWz9aZpPe-32">
          <mxGeometry width="50" height="50" relative="1" as="geometry">
            <mxPoint x="780" y="1200" as="sourcePoint" />
            <mxPoint x="780" y="519.9999999999998" as="targetPoint" />
          </mxGeometry>
        </mxCell>
        <mxCell id="_ZkU4N29EXZwWz9aZpPe-34" value="处理请求" style="edgeStyle=orthogonalEdgeStyle;rounded=0;orthogonalLoop=1;jettySize=auto;html=1;fontSize=16;" edge="1" parent="1">
          <mxGeometry relative="1" as="geometry">
            <mxPoint x="765" y="734.4099999999999" as="targetPoint" />
            <mxPoint x="645" y="734.4099999999999" as="sourcePoint" />
          </mxGeometry>
        </mxCell>
        <mxCell id="_ZkU4N29EXZwWz9aZpPe-35" value="" style="rounded=0;whiteSpace=wrap;html=1;fontSize=16;" vertex="1" parent="1">
          <mxGeometry x="925" y="750" width="25" height="50" as="geometry" />
        </mxCell>
        <mxCell id="_ZkU4N29EXZwWz9aZpPe-36" value="" style="endArrow=none;dashed=1;html=1;fontSize=16;entryX=0.5;entryY=1;entryDx=0;entryDy=0;" edge="1" parent="1" target="_ZkU4N29EXZwWz9aZpPe-35">
          <mxGeometry width="50" height="50" relative="1" as="geometry">
            <mxPoint x="940" y="1210" as="sourcePoint" />
            <mxPoint x="940" y="519.9999999999998" as="targetPoint" />
          </mxGeometry>
        </mxCell>
        <mxCell id="_ZkU4N29EXZwWz9aZpPe-37" value="请求映射路径" style="edgeStyle=orthogonalEdgeStyle;rounded=0;orthogonalLoop=1;jettySize=auto;html=1;fontSize=16;" edge="1" parent="1">
          <mxGeometry relative="1" as="geometry">
            <mxPoint x="915" y="759.9999999999998" as="targetPoint" />
            <mxPoint x="795" y="759.9999999999998" as="sourcePoint" />
          </mxGeometry>
        </mxCell>
        <mxCell id="_ZkU4N29EXZwWz9aZpPe-38" value="" style="rounded=0;whiteSpace=wrap;html=1;fontSize=16;" vertex="1" parent="1">
          <mxGeometry x="1088.75" y="760" width="22.5" height="390" as="geometry" />
        </mxCell>
        <mxCell id="_ZkU4N29EXZwWz9aZpPe-39" value="" style="endArrow=none;dashed=1;html=1;fontSize=16;entryX=0.5;entryY=1;entryDx=0;entryDy=0;" edge="1" parent="1" target="_ZkU4N29EXZwWz9aZpPe-38">
          <mxGeometry width="50" height="50" relative="1" as="geometry">
            <mxPoint x="1100" y="1200" as="sourcePoint" />
            <mxPoint x="1100" y="519.9999999999998" as="targetPoint" />
          </mxGeometry>
        </mxCell>
        <mxCell id="_ZkU4N29EXZwWz9aZpPe-40" value="" style="rounded=0;whiteSpace=wrap;html=1;fontSize=16;" vertex="1" parent="1">
          <mxGeometry x="1248.75" y="790" width="22.5" height="380" as="geometry" />
        </mxCell>
        <mxCell id="_ZkU4N29EXZwWz9aZpPe-41" value="" style="endArrow=none;dashed=1;html=1;fontSize=16;entryX=0.5;entryY=1;entryDx=0;entryDy=0;" edge="1" parent="1" target="_ZkU4N29EXZwWz9aZpPe-40">
          <mxGeometry width="50" height="50" relative="1" as="geometry">
            <mxPoint x="1260" y="1200" as="sourcePoint" />
            <mxPoint x="1260" y="519.9999999999998" as="targetPoint" />
          </mxGeometry>
        </mxCell>
        <mxCell id="_ZkU4N29EXZwWz9aZpPe-46" value="" style="rounded=0;whiteSpace=wrap;html=1;fontSize=16;" vertex="1" parent="1">
          <mxGeometry x="1568.75" y="879" width="22.5" height="261" as="geometry" />
        </mxCell>
        <mxCell id="_ZkU4N29EXZwWz9aZpPe-47" value="" style="endArrow=none;dashed=1;html=1;fontSize=16;entryX=0.5;entryY=1;entryDx=0;entryDy=0;" edge="1" parent="1" target="_ZkU4N29EXZwWz9aZpPe-46">
          <mxGeometry width="50" height="50" relative="1" as="geometry">
            <mxPoint x="1580" y="1200" as="sourcePoint" />
            <mxPoint x="1580" y="520" as="targetPoint" />
          </mxGeometry>
        </mxCell>
        <mxCell id="_ZkU4N29EXZwWz9aZpPe-50" value="" style="rounded=0;whiteSpace=wrap;html=1;fontSize=16;" vertex="1" parent="1">
          <mxGeometry x="1728.75" y="920" width="22.5" height="210" as="geometry" />
        </mxCell>
        <mxCell id="_ZkU4N29EXZwWz9aZpPe-51" value="" style="endArrow=none;dashed=1;html=1;fontSize=16;entryX=0.5;entryY=1;entryDx=0;entryDy=0;" edge="1" parent="1" target="_ZkU4N29EXZwWz9aZpPe-50">
          <mxGeometry width="50" height="50" relative="1" as="geometry">
            <mxPoint x="1740" y="1190" as="sourcePoint" />
            <mxPoint x="1740" y="520" as="targetPoint" />
          </mxGeometry>
        </mxCell>
        <mxCell id="_ZkU4N29EXZwWz9aZpPe-54" value="" style="rounded=0;whiteSpace=wrap;html=1;fontSize=16;" vertex="1" parent="1">
          <mxGeometry x="1888.75" y="1020" width="22.5" height="90" as="geometry" />
        </mxCell>
        <mxCell id="_ZkU4N29EXZwWz9aZpPe-55" value="" style="endArrow=none;dashed=1;html=1;fontSize=16;entryX=0.5;entryY=1;entryDx=0;entryDy=0;" edge="1" parent="1" target="_ZkU4N29EXZwWz9aZpPe-54">
          <mxGeometry width="50" height="50" relative="1" as="geometry">
            <mxPoint x="1900" y="1190" as="sourcePoint" />
            <mxPoint x="1900" y="520" as="targetPoint" />
          </mxGeometry>
        </mxCell>
        <mxCell id="_ZkU4N29EXZwWz9aZpPe-56" value="执行Servlet" style="edgeStyle=orthogonalEdgeStyle;rounded=0;orthogonalLoop=1;jettySize=auto;html=1;fontSize=16;" edge="1" parent="1">
          <mxGeometry relative="1" as="geometry">
            <mxPoint x="1880" y="1039.9999999999998" as="targetPoint" />
            <mxPoint x="1760" y="1039.9999999999998" as="sourcePoint" />
          </mxGeometry>
        </mxCell>
        <mxCell id="_ZkU4N29EXZwWz9aZpPe-78" value="请求处理过程示意图" style="text;html=1;strokeColor=none;fillColor=none;align=center;verticalAlign=middle;whiteSpace=wrap;rounded=0;fontSize=16;" vertex="1" parent="1">
          <mxGeometry x="1088.75" y="1210" width="229" height="40" as="geometry" />
        </mxCell>
        <mxCell id="_ZkU4N29EXZwWz9aZpPe-79" value="Servlet" style="rounded=0;whiteSpace=wrap;html=1;fontSize=16;" vertex="1" parent="1">
          <mxGeometry x="1840" y="480" width="120" height="40" as="geometry" />
        </mxCell>
        <mxCell id="_ZkU4N29EXZwWz9aZpPe-81" value="&lt;font style=&quot;font-size: 16px&quot;&gt;获取第一个Valve，并执行&lt;/font&gt;" style="endArrow=classic;html=1;" edge="1" parent="1">
          <mxGeometry width="50" height="50" relative="1" as="geometry">
            <mxPoint x="800" y="820" as="sourcePoint" />
            <mxPoint x="1080" y="820" as="targetPoint" />
          </mxGeometry>
        </mxCell>
        <mxCell id="_ZkU4N29EXZwWz9aZpPe-82" value="" style="endArrow=classic;html=1;exitX=1.051;exitY=0.189;exitDx=0;exitDy=0;exitPerimeter=0;" edge="1" parent="1" source="_ZkU4N29EXZwWz9aZpPe-38">
          <mxGeometry width="50" height="50" relative="1" as="geometry">
            <mxPoint x="1111.25" y="830.7899999999997" as="sourcePoint" />
            <mxPoint x="1247" y="835" as="targetPoint" />
          </mxGeometry>
        </mxCell>
        <mxCell id="_ZkU4N29EXZwWz9aZpPe-83" value="&lt;span style=&quot;background-color: rgb(255 , 255 , 255)&quot;&gt;获取请求匹配Host的第一个Valve并执行&lt;/span&gt;" style="text;html=1;strokeColor=none;fillColor=none;align=center;verticalAlign=middle;whiteSpace=wrap;rounded=0;fontSize=16;" vertex="1" parent="1">
          <mxGeometry x="1130" y="801" width="90" height="78" as="geometry" />
        </mxCell>
        <mxCell id="_ZkU4N29EXZwWz9aZpPe-45" value="" style="rounded=0;whiteSpace=wrap;html=1;fontSize=16;" vertex="1" parent="1">
          <mxGeometry x="1408.75" y="830" width="22.5" height="340" as="geometry" />
        </mxCell>
        <mxCell id="_ZkU4N29EXZwWz9aZpPe-85" value="" style="endArrow=none;dashed=1;html=1;fontSize=16;entryX=0.5;entryY=1;entryDx=0;entryDy=0;" edge="1" parent="1" target="_ZkU4N29EXZwWz9aZpPe-45">
          <mxGeometry width="50" height="50" relative="1" as="geometry">
            <mxPoint x="1420" y="1200" as="sourcePoint" />
            <mxPoint x="1420" y="519.9999999999998" as="targetPoint" />
          </mxGeometry>
        </mxCell>
        <mxCell id="_ZkU4N29EXZwWz9aZpPe-89" value="" style="endArrow=classic;html=1;exitX=1.051;exitY=0.189;exitDx=0;exitDy=0;exitPerimeter=0;" edge="1" parent="1">
          <mxGeometry width="50" height="50" relative="1" as="geometry">
            <mxPoint x="1431.2475" y="900" as="sourcePoint" />
            <mxPoint x="1565.85" y="901.29" as="targetPoint" />
          </mxGeometry>
        </mxCell>
        <mxCell id="_ZkU4N29EXZwWz9aZpPe-90" value="&lt;span style=&quot;background-color: rgb(255 , 255 , 255)&quot;&gt;获取请求匹配Wrapper的第一个Valve并执行&lt;/span&gt;" style="text;html=1;strokeColor=none;fillColor=none;align=center;verticalAlign=middle;whiteSpace=wrap;rounded=0;fontSize=16;" vertex="1" parent="1">
          <mxGeometry x="1459.5" y="860" width="90" height="78" as="geometry" />
        </mxCell>
        <mxCell id="_ZkU4N29EXZwWz9aZpPe-91" value="" style="endArrow=classic;html=1;exitX=1.051;exitY=0.189;exitDx=0;exitDy=0;exitPerimeter=0;" edge="1" parent="1">
          <mxGeometry width="50" height="50" relative="1" as="geometry">
            <mxPoint x="1274.1475" y="852.71" as="sourcePoint" />
            <mxPoint x="1408.75" y="854" as="targetPoint" />
          </mxGeometry>
        </mxCell>
        <mxCell id="_ZkU4N29EXZwWz9aZpPe-92" value="&lt;span style=&quot;background-color: rgb(255 , 255 , 255)&quot;&gt;获取请求匹配Context的第一个Valve并执行&lt;/span&gt;" style="text;html=1;strokeColor=none;fillColor=none;align=center;verticalAlign=middle;whiteSpace=wrap;rounded=0;fontSize=16;" vertex="1" parent="1">
          <mxGeometry x="1291.75" y="820" width="90" height="78" as="geometry" />
        </mxCell>
        <mxCell id="_ZkU4N29EXZwWz9aZpPe-94" value="构造FilterChain" style="endArrow=classic;html=1;fontSize=16;entryX=1.076;entryY=0.192;entryDx=0;entryDy=0;entryPerimeter=0;" edge="1" parent="1">
          <mxGeometry width="50" height="50" relative="1" as="geometry">
            <mxPoint x="1593.9700000000003" y="909.9999999999998" as="sourcePoint" />
            <mxPoint x="1591.25" y="951.04" as="targetPoint" />
            <Array as="points">
              <mxPoint x="1623.97" y="910" />
              <mxPoint x="1623.97" y="950" />
            </Array>
          </mxGeometry>
        </mxCell>
        <mxCell id="_ZkU4N29EXZwWz9aZpPe-95" value="执行" style="edgeStyle=orthogonalEdgeStyle;rounded=0;orthogonalLoop=1;jettySize=auto;html=1;fontSize=16;" edge="1" parent="1">
          <mxGeometry relative="1" as="geometry">
            <mxPoint x="1720" y="979.4999999999998" as="targetPoint" />
            <mxPoint x="1600" y="979.4999999999998" as="sourcePoint" />
          </mxGeometry>
        </mxCell>
        <mxCell id="_ZkU4N29EXZwWz9aZpPe-96" value="执行FilterChain" style="endArrow=classic;html=1;fontSize=16;entryX=1.076;entryY=0.192;entryDx=0;entryDy=0;entryPerimeter=0;" edge="1" parent="1">
          <mxGeometry width="50" height="50" relative="1" as="geometry">
            <mxPoint x="1762.7200000000003" y="959.4799999999998" as="sourcePoint" />
            <mxPoint x="1760" y="1000.52" as="targetPoint" />
            <Array as="points">
              <mxPoint x="1792.72" y="959.48" />
              <mxPoint x="1792.72" y="999.48" />
            </Array>
          </mxGeometry>
        </mxCell>
      </root>
    </mxGraphModel>
  </diagram>
</mxfile>
